<?xml version="1.0" encoding="utf-8"?>
<!-- Generator: Adobe Illustrator 24.1.1, SVG Export Plug-In . SVG Version: 6.00 Build 0)  -->
<svg version="1.1" id="Layer_1" xmlns="http://www.w3.org/2000/svg" xmlns:xlink="http://www.w3.org/1999/xlink" x="0px" y="0px"
	 viewBox="0 0 512 512" width="64px" height="64px" fill="#FFC106" style="enable-background:new 0 0 512 512;" xml:space="preserve">
<style type="text/css">
	.st0{fill="#FFC106";}
</style>
<g>
	<path class="st0" fill="#FFC106" d="M263.2,511.9h-2.6c-71.1-0.5-138.9-29.7-188.3-80.8c-93.8-100.3-96.7-255.3-6.7-359.1
		c28-31.4,63.2-55.5,102.6-70.3c9.4-3.6,20-1.4,27.2,5.6c6.6,6.8,9,16.6,6.1,25.6c-28.7,78.6-9.3,166.7,49.8,226
		c59.6,58.9,147.7,78.2,226.5,49.8c13.4-4.7,28,2.3,32.7,15.7c2,5.6,1.9,11.8-0.1,17.4c-13.1,35-33.6,66.7-60,93.1
		C400.7,484.5,333.3,512.2,263.2,511.9z"/>
</g>
</svg>
